<?xml version="1.0" encoding="UTF-8" standalone="no"?>
<!-- Generator: Adobe Illustrator 11 Build 196, SVG Export Plug-In . SVG Version: 6.0.0 Build 78)  -->

<svg
   xmlns:ns5="http://ns.adobe.com/SaveForWeb/1.0/"
   xmlns:ns4="http://ns.adobe.com/Variables/1.0/"
   xmlns:ns3="http://ns.adobe.com/AdobeIllustrator/10.0/"
   xmlns:a="http://ns.adobe.com/AdobeSVGViewerExtensions/3.0/"
   xmlns:xapMM="http://ns.adobe.com/xap/1.0/mm/"
   xmlns:xapGImg="http://ns.adobe.com/xap/1.0/g/img/"
   xmlns:xap="http://ns.adobe.com/xap/1.0/"
   xmlns:pdf="http://ns.adobe.com/pdf/1.3/"
   xmlns:x="adobe:ns:meta/"
   xmlns:dc="http://purl.org/dc/elements/1.1/"
   xmlns:cc="http://creativecommons.org/ns#"
   xmlns:rdf="http://www.w3.org/1999/02/22-rdf-syntax-ns#"
   xmlns:svg="http://www.w3.org/2000/svg"
   xmlns="http://www.w3.org/2000/svg"
   xmlns:sodipodi="http://sodipodi.sourceforge.net/DTD/sodipodi-0.dtd"
   xmlns:inkscape="http://www.inkscape.org/namespaces/inkscape"
   ns3:viewOrigin="-429.7329 804.6909"
   ns3:rulerOrigin="0 0"
   ns3:pageBounds="0 792 612 0"
   width="1327.339"
   height="702.66"
   viewBox="0 0 1327.339 702.66"
   overflow="visible"
   enable-background="new 0 0 1327.339 702.66"
   xml:space="preserve"
   version="1.1"
   id="svg872"
   sodipodi:docname="micro-ops.svg"><defs
   id="defs876">
			
			
			
			
			
			
			
			
			
			
			
			
			
			
			
			
			
			
			
			
			
			
			
			
			
			
			
			
			
			
			
			
			
			
			
			
			
			
			
			
			
			
			
				 
			
			
			
			<linearGradient
   id="XMLID_29_"
   gradientUnits="userSpaceOnUse"
   x1="772.6733"
   y1="270.6479"
   x2="787.4825"
   y2="270.6479">
				<stop
   offset="0"
   style="stop-color:#169133"
   id="stop617" />
				<stop
   offset="1"
   style="stop-color:#FFFFFF"
   id="stop619" />
				<a:midPointStop
   offset="0"
   style="stop-color:#169133" />
				<a:midPointStop
   offset="0.5"
   style="stop-color:#169133" />
				<a:midPointStop
   offset="1"
   style="stop-color:#FFFFFF" />
			</linearGradient>
			 
			<linearGradient
   id="XMLID_30_"
   gradientUnits="userSpaceOnUse"
   x1="822.3677"
   y1="270.6479"
   x2="837.1769"
   y2="270.6479">
				<stop
   offset="0"
   style="stop-color:#169133"
   id="stop624" />
				<stop
   offset="1"
   style="stop-color:#FFFFFF"
   id="stop626" />
				<a:midPointStop
   offset="0"
   style="stop-color:#169133" />
				<a:midPointStop
   offset="0.5"
   style="stop-color:#169133" />
				<a:midPointStop
   offset="1"
   style="stop-color:#FFFFFF" />
			</linearGradient>
			 
			<linearGradient
   id="XMLID_31_"
   gradientUnits="userSpaceOnUse"
   x1="872.061"
   y1="270.6479"
   x2="886.8702"
   y2="270.6479">
				<stop
   offset="0"
   style="stop-color:#169133"
   id="stop631" />
				<stop
   offset="1"
   style="stop-color:#FFFFFF"
   id="stop633" />
				<a:midPointStop
   offset="0"
   style="stop-color:#169133" />
				<a:midPointStop
   offset="0.5"
   style="stop-color:#169133" />
				<a:midPointStop
   offset="1"
   style="stop-color:#FFFFFF" />
			</linearGradient>
			 
			<linearGradient
   id="XMLID_32_"
   gradientUnits="userSpaceOnUse"
   x1="545.0894"
   y1="648.7642"
   x2="559.8986"
   y2="648.7642">
				<stop
   offset="0"
   style="stop-color:#FF9900"
   id="stop638" />
				<stop
   offset="1"
   style="stop-color:#FFFFFF"
   id="stop640" />
				<a:midPointStop
   offset="0"
   style="stop-color:#FF9900" />
				<a:midPointStop
   offset="0.5"
   style="stop-color:#FF9900" />
				<a:midPointStop
   offset="1"
   style="stop-color:#FFFFFF" />
			</linearGradient>
			 
			<linearGradient
   id="XMLID_33_"
   gradientUnits="userSpaceOnUse"
   x1="591.9487"
   y1="648.7642"
   x2="606.7579"
   y2="648.7642">
				<stop
   offset="0"
   style="stop-color:#FF9900"
   id="stop645" />
				<stop
   offset="1"
   style="stop-color:#FFFFFF"
   id="stop647" />
				<a:midPointStop
   offset="0"
   style="stop-color:#FF9900" />
				<a:midPointStop
   offset="0.5"
   style="stop-color:#FF9900" />
				<a:midPointStop
   offset="1"
   style="stop-color:#FFFFFF" />
			</linearGradient>
			 
			<linearGradient
   id="XMLID_34_"
   gradientUnits="userSpaceOnUse"
   x1="638.8071"
   y1="648.7642"
   x2="653.6163"
   y2="648.7642">
				<stop
   offset="0"
   style="stop-color:#FF9900"
   id="stop652" />
				<stop
   offset="1"
   style="stop-color:#FFFFFF"
   id="stop654" />
				<a:midPointStop
   offset="0"
   style="stop-color:#FF9900" />
				<a:midPointStop
   offset="0.5"
   style="stop-color:#FF9900" />
				<a:midPointStop
   offset="1"
   style="stop-color:#FFFFFF" />
			</linearGradient>
			 
			
			
			
			
			
			
			
			
			
			
			
			
		<linearGradient
   id="XMLID_24_"
   gradientUnits="userSpaceOnUse"
   x1="190.73489"
   y1="448.63129"
   x2="361.29611"
   y2="448.63129"
   gradientTransform="rotate(-90,637.47995,327.21535)"><stop
     offset="0"
     style="stop-color:#FF9900"
     id="stop196" /><stop
     offset="1"
     style="stop-color:#FFFFFF"
     id="stop198" /><a:midPointStop
     offset="0"
     style="stop-color:#FF9900" /><a:midPointStop
     offset="0.5"
     style="stop-color:#FF9900" /><a:midPointStop
     offset="1"
     style="stop-color:#FFFFFF" /></linearGradient><filter
   style="color-interpolation-filters:sRGB;"
   inkscape:label="Colorize"
   id="filter2255"><feComposite
     in2="SourceGraphic"
     operator="arithmetic"
     k1="0"
     k2="1"
     result="composite1"
     id="feComposite2241" /><feColorMatrix
     in="composite1"
     values="1"
     type="saturate"
     result="colormatrix1"
     id="feColorMatrix2243" /><feFlood
     flood-opacity="1"
     flood-color="rgb(0,1,158)"
     result="flood1"
     id="feFlood2245" /><feBlend
     in="flood1"
     in2="colormatrix1"
     mode="multiply"
     result="blend1"
     id="feBlend2247" /><feBlend
     in2="blend1"
     mode="screen"
     result="blend2"
     id="feBlend2249" /><feColorMatrix
     in="blend2"
     values="1"
     type="saturate"
     result="colormatrix2"
     id="feColorMatrix2251" /><feComposite
     in="colormatrix2"
     in2="SourceGraphic"
     operator="in"
     k2="1"
     result="composite2"
     id="feComposite2253" /></filter></defs><sodipodi:namedview
   pagecolor="#ffffff"
   bordercolor="#666666"
   borderopacity="1"
   objecttolerance="10"
   gridtolerance="10"
   guidetolerance="10"
   inkscape:pageopacity="0"
   inkscape:pageshadow="2"
   inkscape:window-width="640"
   inkscape:window-height="480"
   id="namedview874"
   showgrid="false" />
	<metadata
   id="metadata2">
		<ns4:variableSets>
			<ns4:variableSet
   varSetName="binding1"
   locked="none">
				<ns4:variables />
				<ns4:sampleDataSets />
			</ns4:variableSet>
		</ns4:variableSets>
		<ns5:sfw>
			<ns5:slices />
			<ns5:sliceSourceBounds
   y="102.031"
   x="-429.733"
   height="702.66"
   width="1327.339"
   bottomLeftOrigin="true" />
		</ns5:sfw>
<?xpacket begin='﻿' id='W5M0MpCehiHzreSzNTczkc9d'?><x:xmpmeta
   x:xmptk="XMP toolkit 3.0-29, framework 1.6">

<metadata><rdf:RDF>

 <rdf:Description
   rdf:about="uuid:75610f62-92d4-11e4-92d4-000d933a9528">
  <pdf:Producer>Adobe PDF library 6.66</pdf:Producer>
 </rdf:Description>

 <rdf:Description
   rdf:about="uuid:75610f62-92d4-11e4-92d4-000d933a9528">
 </rdf:Description>

 <rdf:Description
   rdf:about="uuid:75610f62-92d4-11e4-92d4-000d933a9528">
  <xap:CreateDate>2014-11-29T01:07:29-05:00</xap:CreateDate>
  <xap:ModifyDate>2015-01-02T23:10:16Z</xap:ModifyDate>
  <xap:CreatorTool>Illustrator</xap:CreatorTool>
  <xap:MetadataDate>2015-01-02T18:04:18-05:00</xap:MetadataDate>
  <xap:Thumbnails>
   <rdf:Alt>
    <rdf:li
   rdf:parseType="Resource">
     <xapGImg:format>JPEG</xapGImg:format>
     <xapGImg:width>256</xapGImg:width>
     <xapGImg:height>136</xapGImg:height>
     <xapGImg:image>/9j/4AAQSkZJRgABAgEASABIAAD/7QAsUGhvdG9zaG9wIDMuMAA4QklNA+0AAAAAABAASAAAAAEA
AQBIAAAAAQAB/+4ADkFkb2JlAGTAAAAAAf/bAIQABgQEBAUEBgUFBgkGBQYJCwgGBggLDAoKCwoK
DBAMDAwMDAwQDA4PEA8ODBMTFBQTExwbGxscHx8fHx8fHx8fHwEHBwcNDA0YEBAYGhURFRofHx8f
Hx8fHx8fHx8fHx8fHx8fHx8fHx8fHx8fHx8fHx8fHx8fHx8fHx8fHx8fHx8f/8AAEQgAiAEAAwER
AAIRAQMRAf/EAaIAAAAHAQEBAQEAAAAAAAAAAAQFAwIGAQAHCAkKCwEAAgIDAQEBAQEAAAAAAAAA
AQACAwQFBgcICQoLEAACAQMDAgQCBgcDBAIGAnMBAgMRBAAFIRIxQVEGE2EicYEUMpGhBxWxQiPB
UtHhMxZi8CRygvElQzRTkqKyY3PCNUQnk6OzNhdUZHTD0uIIJoMJChgZhJRFRqS0VtNVKBry4/PE
1OT0ZXWFlaW1xdXl9WZ2hpamtsbW5vY3R1dnd4eXp7fH1+f3OEhYaHiImKi4yNjo+Ck5SVlpeYmZ
qbnJ2en5KjpKWmp6ipqqusra6voRAAICAQIDBQUEBQYECAMDbQEAAhEDBCESMUEFURNhIgZxgZEy
obHwFMHR4SNCFVJicvEzJDRDghaSUyWiY7LCB3PSNeJEgxdUkwgJChgZJjZFGidkdFU38qOzwygp
0+PzhJSktMTU5PRldYWVpbXF1eX1RlZmdoaWprbG1ub2R1dnd4eXp7fH1+f3OEhYaHiImKi4yNjo
+DlJWWl5iZmpucnZ6fkqOkpaanqKmqq6ytrq+v/aAAwDAQACEQMRAD8A9UYq3irsVdirsVdirsVd
irsVdiqWXOpzJcyxJwURELVgWJqoauxWn2sgZNMshulP9KXP88X/AADf8148RR4hd+lLn+eL/gG/
5rx4iviF36Uuf54v+Ab/AJrx4iviF36Uuf54v+Ab/mvHiK+IXfpS5/ni/wCAb/mvHiK+IXfpS5/n
i/4Bv+a8eIr4hd+lLn+eL/gG/wCa8eIr4hd+lLn+eL/gG/5rx4iviF36Uuf54v8AgG/5rx4iviF3
6Uuf54v+Ab/mvHiK+IXDV5kkj9Tg6PIkZCqVIMjBAd2boTjxJGQ2m+TbnYq7FXYq7FXYq7FXYq7F
WsVbxV2KuxV2KuxV2KuxV2KuxV2KsP1m79LV7tK/tJ/yaTKJHdwcsqkfx0Qn6Q98HEw40DrlzfXG
i6hb6fN6N/NbTR2k3IrwmaMiNuQ3FGINceJRPdjccP5h6dHDBZapDqESXEAZ7yob6tUtOeVJJCat
xAZyaKPirWp4gz8QJVb6h+cV1pt1cQzwQ3yysttb3SxxxsFeH49oS/ptxm4qSG4kVbkK4bCeOLId
Lk89Q388l9qUFzaSrP6MLRqPScsDb0MYRmULUOCanxwcQYnIEpWb83xAP9PsTN9XjBdowR9YE6mQ
+mOPJDAKD94KtyNFqvB4gnjiidWk/MudLiKxvYIPWN2qzBkHpKUpaNEDC7dacwxJDciCRxAeIKJx
WK35mIIYYb23WCUTmeaVhJcRs907oQShjZhCUUAKEHxbfZo8QXxIss0y/wBQGm2g1F0bUBDGLxot
kM3AeoU/yeVaYOJgZor9Ie+PEvGuhvPUurVK9biD/k6uEHdlCVkM5y9z3Yq7FXYq7FXYq7FXYq7F
XYq7FXYq7FXYq7FXYq7FXYq7FXYqkWreU7fULxroXMsEklPUVQrAlQFB+IbbDK5YwTbRPTxkb3QX
+BI/+rhN/wACn9MHhBh+Uj3l3+BI/wDq4Tf8Cn9MfCC/lI95U5/JlnAgefVXiQmgZxEor4VIx8IL
+Uj3lR/wnG/+89zdzeLekkajwNZQnIH/ACa4+EF/KR7yp/4LvHmEQvyrgj1VVVkCL1qXIjoT2Xjj
4QX8pHvLn8l3kU5jOoFw5/cckEYYdSC4ElGHhx3G4PUB8IL+Uj3lU/wkif70XF3F/lCNJVJ70MYc
gf6wGPhBfyke8q0Hk2yuATBqzyhdmKekwB96DHwgv5SPeVT/AAJH/wBXCb/gU/pj4QX8pHvLv8CR
/wDVwm/4FP6Y+EF/KR7yrWnkuG3uoZ2vZZfRdZAhVACUPIdB4jCMYDKOmiDe7JMsch2KuxV2KuxV
2KuxV2KuxV2KuxV2KuxV2KuxV2KuxV2KuxV2KoVtSsgxVJPWdTRkhDSlT/lBA3H6cVa9bUJP7u3E
I6Fp3BYe4SPmGH+zGKu+pzyf70XTsD1jh/cp7UIrIP8Ag8VVILK0gcvFEolIo0p3kYf5TmrH6Tiq
2SaSVzDbmlNpZ+oT2WoozfgO/gVVaGGOFAkYoo33JJJPUkmpJPicVdLFHKhjkUMjdQcVUFkktmEc
5LwsaRznqCeiyU/Bu/Q70qqqT2drOQ00Su6/YkI+Nf8AVb7Sn3BxVS+pzR729zItOkcv75Pepb95
/wAPirvW1CP+8t1nXpygYBifEpJxCj/ZnFXDU7IGkrmAnYCdWiqfBS4UN/sa4qi8VdirsVdirsVd
irsVdirsVdirsVdirsVdirsVdiqlPdW1uAZ5UiDbKXYKCfauKqP18v8A7z28sv8AlFfSUHtUycCR
/qg4q7hqUv25I7dTsViBkf5h3Cr98ZxV36Mtm3uOVye/rMWUnx9PaMH5LiqKVVVQqgKqiiqNgAOw
xVvFXYqhTI90SkDcYBtJOOreKxkfi3btv9lVERxxxoEjUKi7Ko2AxVdirsVaZVZSrAMrCjKdwQex
xVC1ez+1V7T+bq0Xz8U9+3y3CqKBBFRuD0OKt4q0QCKHcHqMVQv6MtF3gBtj29AmNa+JQfAx/wBZ
TirvT1GL7EqXCjosy8HPzkT4f+SeKu+vSJtcW0sfbmi+spPt6fJ6e7KMVVYLu1uOXoSpIUpzCkEr
X+YdR074qrYq7FXYq7FXYq7FULc6hHbyCMo8jFeR48dgTQfaK+GAyphKdKP6Yj/3xL/yT/5rwcTH
xfJ36Yj/AN8S/wDJP/mvHiXxfJ36Yj/3xL/yT/5rx4l8XyQcmuagbto4rIrb0oJ5GjJBHE1CK9Wr
yIp8PTrvjxJ8QLvrbSb3DXDV6xxenCntQq/qf8PjxI8XyVILyxgJaGzdHb7cgEXNv9ZufJj7k48S
+L5K41iDkoeKRAzKnNuFAWPEVoxPU48SRkHcr3d7HbcAys7PWirStBSp+IqO+EmmUpUh/wBMR/74
l/5J/wDNeDiYeL5O/TEf++Jf+Sf/ADXjxL4vk79MR/74l/5J/wDNePEvi+SCn1S8mvvT+ruuncB6
hrGHZt9hRz8J2BG3z7Y8SfE8kaNWiUAC3kAGwA9OgH/B48SPF8nfpiP/AHxL/wAk/wDmvHiXxfJp
9bgRGd4ZVRQWZv3ewG5Oz48S+KO5MAQRUdDkm1vFXYql7W+oQ3kItPTGn1rPExowrUfAOJAXfl16
+G+KphirsVdirsVQL6tErsohkbgxUsOFKqaHqwPUZHiazkHcoT3tjccfXsmkKV4FhEStf5TzqOnb
HiR4vkpfWvT/AN52uU78JDHMhPvzcyfQHGPEvi+Sw65qaTxIbL1Ya/vZ0ZFNCQP7tn+GnKteTfZ6
b7PEkZAjf0xH/viX/kn/AM148SPF8nfpiP8A3xL/AMk/+a8eJfF8nfpiP/fEv/JP/mvHiXxfJVtt
Shnm9EI8cnEuofjuFIBpxLdOQwiVsoztJvMV16F+m9OUS/gzZXM7tGeVSY7reo6q2mS/oplF+Gja
HmRxPGRSwavYoCMhxNQyMXm1L82G9MRvYIY6q7BKiQ8bkBypkJC1+rsVDA/aHTJcQZccVe51X8y3
MiRraQot0PSmj4yO9ujQE1WQoqmRfW9wePTrg4gjji3aal+ZiXVuk5sHsY2thK/xmd0pGtyWPJUD
buylR1FKUoceILxxautc/Mj9I3EVtBafVv30kLsDQIjqkKK3IcnkjcueXEBk4/ZYMHiC8YTfRNS8
zLd3UerGFrRVjNlLF9sk8vU9U161pSi0p3JrRMkGYTf6/wCpLAlftTw/8nVxB3WM7I96eeZp/Ra1
atKiQf8AEcnkLfnNUxfWr/UZNGv49NkEeovbyrZSEgBZyhEZ3qNnp1yviccZGNyan+Z8k3pg2UMI
ua+si1Y23r25A4u7gv6Prg9N+NKYeIMuOLR1L80zDNEzWCyenAIrpFNebQyeswjZ6ALP6fUn4a9T
jxBPHFaNU/NZLBgg0+S5COyNNXk0huHKKyxsiBfQ4g0bY+O+PEF44o7V9a8+pqzR6ZHZvZSMotzM
HAVFiZ3aV1JIYyoIwAtOLhtyrDHiCBMO0DU/PS6oRq/1dtLkiZ+S09dJqIAlFYoE+1SnI16kUFUy
CmYZDd6jytJlr1jYfgcHEwM2dx/3afIfqzIdiuxVB6m2qrDEdNSF5fVQTLOWA9ImjleP7Q/zr0yM
r6MMnFXppVvWvFs5zZKj3YRvq6SkhDJT4eRG9K4TdbJndGua61NwbaI3KqtwVHrKhJUPT4uNe1cQ
mN1vzUdMbVWt2OppClx6jhRblinphvgJ5b1p1/zGCN9WOPir1Vfki8kzdirDLu/9O8uUr9maX/iZ
ygndwJTon3se8yaj5tE9nJoDQFEE5vI7jdXogaFRQqQWdeHKvwhiaHESCiY6pRBqf5p/WHllNj6P
EuLcr1pJJxjVw5Ks0fpkk8gDt4nHiDLji0dS/NKRYSxs4plWL1Y0oYWYPbs9XJMgBX1waL4AV+1j
xBeOKOsdV/MEW85vBYNcNbObdUDqq3KrH6fI82qrln5D9nj9og1x4ggzCGtNY/MSaZBOlvHardlW
kA4SmCN0YFlLMoDL6iHjyrQEbNs8QXjDINC1XWm0qA60Ik1P4hcrb1EVQ5C8Ks5pxp1P0DpgMkGY
6J95fuvX1gb1420v4vFk4HdtwSuSaaz5ettUeOR5ZIZIxx5R03XrQhgemSlAFtyYRPmlv+Bbf/lu
n+6P/mnI+EGv8rHvLv8AAtv/AMt0/wB0f/NOPhBfyse8pfqHlPivp2N5K85cRhnCceR3Kii7kKCx
8AMfCC/lY95VrHyla3MSFr2dHdBIoIj+JGAIYfD77jt+t8IL+Vj3lFf4Ft/+W6f7o/8AmnHwgv5W
PeXf4Ft/+W6f7o/+acfCC/lY95VLfyVaxXEUxu5pPSdXCHgASpDDoB3GEYwEx00Qb3TPWNGt9UhR
JXeJ4zVJIyKivUUIINclKILZkxCfNKP8C2//AC3T/dH/AM05Dwg1flY95Up/J+nwAerqMyltkWiF
mI7KoWrH2GPhBfyse8oabyn8HOOe4ROivMIwzE/Z4RgcifZuOPhBfyse8rZPJd3AInkv2dX2kUqq
hXJ+EcgrUU9K8Tv89j4QX8rHvKr/AIVtI9rq6ubbxdxGYvn6igqB4cqE+GDwgv5WPeUUPI9qwBF/
MQdwQI6Ef8Dj4QX8rHvLZ8iWpFGvZ2U7MtEFR4bLh8IL+Vj5smUBVAHQCmWOS3irsVdirsVdirsV
dirH77ydaXV1JcLczQmVi7IvEjkTUkcgTucrOMFx5aaJN7qH+Bbf/lun+6P/AJpweEEflY95d/gW
3/5bp/uj/wCacfCC/lY95S/UPKfFfTsbyV5y4jDOE48juVFF3IUFj4AY+EF/Kx7yrWPlK1uYkLXs
6O6CRQRH8SMAQw+H33Hb9b4QX8rHvKK/wLb/APLdP90f/NOPhBfyse8u/wAC2/8Ay3T/AHR/804+
EF/Kx7yjtH8tW+mXL3CzyTOyGMc+IABIJ+yB/KMlGADZjwiHJOcm2uxVDSSPM5hhPFV2mmHb/JX/
ACv1YqpmNPr0EEYpFbRtKVG3F3+CM+9V9T+PbFVtrArxS25JV7WZxE6/sBv3iBfZUkC06dumKoiC
dmYxSgLOoqQOjD+Zfb9X61VfFWmZVUsxCqoqzHYADucVQv6QSTa1ja58HSgi+fqNRSPHjUjwxV3o
Xs39/N6KHrFB1p3BkYcj81CkYquWGzskeUIE2/eSbs7eFW3dj4d8VbhikeT6xOKP0ii2PpqfGmxY
9/uHiVVdlVlKsAysKMp3BB7HFUNAzQSC2kJKN/vNIdyQBXgT/MoH0j3rirjp0AJa3ZrVjuTCQFJP
UlCGjJPiVrirXqahD/eRrcp/PD8D/wDAOafSH+jFVSC9tZnKRv8AvQKmJgUkA8SjAMB9GKq+KuxV
2KuxV2KuxV2KuxV2KoaSR5nMMJ4qu00w7f5K/wCV+rFVP00+vwQoKRWsbSlelHf4Iz7/AA+p/nTF
VtrArxS25JV7WZxE6/sBv3iBfZUkC06dumKoiCdmYxSgLOoqQOjD+Zfb9X61VfFXYq7FULfx30iR
LaSLF+8H1hmrX0qHkFoPtdKYqiI40jQIg4quwAxVDWtrPFd3c8s3qrOy+ipABRFH2agD9onFWktL
hdUkuvW/0eSJUMFB9tTs1aV6E9/1Yqt1Ca3KmJZKXijlCEUyOjEbMUT4uPjXbtiqy0bWpbdBOsdv
Jvzcn1XNDQfCvFAaftV/2Pgqrrp0HIPMWuZAahpjyAI6EIKIpHiqjFUViq13SNGkchUQFmY9ABuS
cVUIkeaQTygqq/3ER6iv7bD+Y9vAfTiqJxV2Kqc0KTRGN/smm42IINQQfEHcYqp28z8jBN/foK8h
sHXpzH8R2+VKqojFVOe3gnQJNGsig1AYVofEeB98VUPq11DvbTllH+6Z6uPkJPtivixanhirvrxi
2u4mg8ZR8cXz5gVUDxcLiqJR0kQPGwdGFVZTUEeIIxVdirsVdirsVdiqFv4r6RYVtJVi/eD6wzdT
FQ8gux+LpTpiqIjjSNAiDiq7ADFUNa2k8V3dTyzeqsxURKQBwRQfhqAP2mOKtJaXC6pJdet/o8kS
obegpzU7NWla0JHX9WKq13A00JEbBJ1BMMtK8HpsabVHiO4xV1mt0tsi3RVpwKOy7g77Hou9Ouw3
7YqrYq7FULqN29tCrIBydwgLVIGxNaClenjgkaYTlQQH6Xuv54v+Ab/mvIcRa/EKkfMBFwLY3FuL
ll9RYKHmUBpyC+pWle+HiK+IUK93dves81+vpyjjHaoHj+x4FZQ1R8Vada79BjxJ8QouHUHgThCI
Ik68UiKip9g+DiKPEKJs9VllvUtpODCRHYMgK0KU61LdeWES3ZQmSaURrNy4DAxqG3ClWJAPavIV
+7BxMfFLR1qYOIzLCJGBZU4GpC0BIHPtyGPEV8QoOe/ku76Ii9iD2R5TW0ak1L8WT1FLn+Wq1HuC
MPEviFHfpe5rTnFX/Ub/AJrwcRXxCsm1u5iieWsTcFLceDCtBWleZpjxFBykIq91OSL6t6XFRcRt
JVwWpThQUBX+fJSNNk5kEIWXW5YonllmgjijUtJIylVVVFSSS9AAMjxFh4hQl9dy6naxNDeJGv8A
eQzwqSGDoQNw+6nly2PYYeJfEKO/S9zWnOKv+o3/ADXg4iviF36Xuv54v+Ab/mvHiK+IVS31eR7W
+kZVMlmpYEVCt8HMbVJwiWxZDIeEnuU/0vdfzxf8A3/NeDiLHxCgpLozK8trPFBNJy4zwq1C+4qy
h+EhB/mBw8RXxCr2moX0FusUlxHMUqA5jevGvwgkyMSQNqk1PXHiU5Crfpe5rTnFX/Ub/mvBxFfE
LceszfWYI34Os0gjPFSpFQSDuzeGES3THIbATjJtzsVdirsVdirsVdirsVdirsVSbzU7R6YsoBIj
kUsQOgowqfvyGTk0aj6WIfpmP/fg+/KLcLjKQa9o2la1JdST313bSXUVtA72ly0BCWk7zpxKdy0h
BJrt0pvUiTIZSEFZ+UfL1vNb3EF7c1tpYZ7WkkYCeixYKhVAwjdSVda0ILH7TMxPGU+MWWfpmP8A
34PvyNsOMpn5YvRc65HxPILFLUjcAkrTfLMZ3b9OSZfBLpdS9CVoZT6ckZ4sjbEEexyFtJkQkWv6
XpWt31he3V1NFLpyziAQSKgJnCjk2xNY2jV0odmFd8RJIykJOvkjy7xvY21K+Z71CJJPrKpKnISI
XR41RuRWZgWYkt+1Xep4ynxinOladpum6i+oR3cs9zIjxu87Ru5WRkbeXgJW4mP4eTnY06BeI4kH
ISm0+rI8EiK4ZmVgADUkkYLYmRT7zLcm3h0pzshhdS3apERAr9By3L0cnUmiPj+hjOrzWmq6Te6Z
PMyQX0EttK8bAOqTIUYoSGAYBttsr4nHGQhjU3k3R2uWu5tb1PmfVr/paqlZoBbksoQBqD4hyqOZ
LGvJqnjZeMe5q68j6FcvK8mqagjytKQ8VwkTxiaaGd0jeNFZF52y0APQkeFHjXxizL9Mx/78H35G
2HGU30SZ7jRdckQFy0bBAoJLH0T9mnXfbbLI/SXIx2ccvj9yUfpmP/fg+/K7cfjLEJfJfl+R5H+v
XaGRpXbjMgoZY3j+D4PgKCVipWhBPXJcZZ+MV0HlLQ4rcwwanerLVOd366POeKlWDu6NX1EIDE77
KQQRXHjXxiifJ+g2Hlq2iSO/lvbkW0dtPcTlKv6bvJyFByWrSn4eVPGrVYgytEspLLNM1BbjV7CN
W5fvwTTfYK2GB3DLDImY/HR6BmQ7B2KuxV2KuxV2KuxV2KuxV2KuxVb6cf8AIPuGKoSaOO6lNuqj
0EP+ktQfFttH9PVvbbvsq7To41iliKjlDNIpWg+FWcugHt6br8umKov04/5B9wxVwRFNQoB9hiri
iE1KgnxIxVZMbeGJpHUBVFTQVPyA7k9hiqA+rejLb3sqATSPwuBsQqTAKqDx4uEFfme+Kpl6cf8A
IPuGKu9OP+QfcMVbIBFCKjwOKqcv1eJC7hVVeppiqV6hYpf+jb3KcUuGP7lackjRSxc9RyLcVPgD
QeOKq1g/p2sLTKpjYAO1P7qQfC6N/khgQD2xVMfTj/kH3DFWwqqKAAD2xVr04/5R9wxVDS0lcwQA
Lx2mmAHw/wCSv+V+r9aqV6ZZJHKk1uqpJeQ/WEU7qw5lmWQ7moWVFDddvCoKqcwNBMhIQKyni6MA
GVh+y3+e/UbYqqCNAahQD40xVdirsVdirsVdirsVdirsVdirsVdiqHuZnBWGH+/lrxJ3CqPtOfl2
8TT54qqQwpDEI0+yK7nckk1JJ8SdziqhB8GoXcY+y6xTmvXkwaMj5UhGKovFXYq7FUJ/vTdf8UWx
+h5f6R/8S91xVWuoBcW0kNeJkUgONyp7MPcHcYq1aTme1imI4s6gun8rftKfdTscVVsVU5p4YU5y
uEWtBXufADufYYqpRRPK4nnHHjvDCf2f8pv8r9X61VK3mhudTuDHIsgtEEJ4kErI55SKQPZU/wA6
4q6zkgF1d2JZS6uZVhJBb05QGZiPAyF8VXgmzNDvaHof99ex/wAj/iPy6KolHSRFkjYOjgMjqagg
7ggjFUO05uGMVs44j+9nWhC+y9i36v1qqOpm2t9O+rcliW6ZbWMMaEtO3A0r9pqEt74qu1SeG1Fv
eTSLFFDKFlkYhfgl/d0LGgpzZWPyxVXngcuJoSFnUU32V1G/B6fge33gqtwXMU1QDxlX7cLUDqR2
Yf5g9tsVVsVdirsVdirsVdirsVdirsVWSTQxKDK6xg7AsQBX6cVQd/renWdq1w8qyKpVeCPHyJdg
gpyZR1bxxV1hdWbRiZriNp7ijN8VCAfsoFbiwC16EDeppUnFUXLPBFT1ZFj5dOTBa0+eKpXd6taR
avZgMJFljlj9RHj4glkb4iWHRUY/qriqZLe2bsFWeNmOwUOpJP34quluLeIgSypGT0DMBX78VS/U
tdtLf0oopFea4PBHVkYJVlUuwrU8efKg7A9BviqLtZbFUS3gmR6CigOGY9yTvuT1OKqkl1bRNxkm
RG68WYA0+nFUtstWs0v7qyLhUDtNFIXj4cXCs2/Ll8UjsRUU6gdKYqmUd1bStxjmR268VYE0+jFW
rm0t7n0vXTn6EizRbkUda8Tsd6V74qrYqpxW8MTSNGgVpW5yEdzSlcVcLeETmcIPWZeBfvQb0/z/
AIYq3LFHLE8Uih45FKup6FWFCDiqhFNp1tGIEmjRY/h4tICRvvUsSfvxVTs20izgWC2lijiXoPUB
P0kkk4qrEWV2UaqT+g4kShDBXAIB277mmKr7m2guYWhnQSROKMpxVVxVQFnbC7N4EpcFPTLgndag
7itOw364qr4q7FXYq7FXYq7FXYq7FXYqkHmDWNO0mZrvULiO1gEcSetKQqgySMoFT4mmYmpmQQA5
GGN28mt/Omvcpp4fO+m3UMhZkUIXaGOeUrEtEiO6MVWrr8XTYkNlXH5Fnw+bLPJ/5i6TqcMNjea5
Z6jqlw0irDBDJbtRGYUeKRnZailAwHhuchOZHRlGIKdXXmTSdEsLW91e9is4ZLS2T6xOwUM59Uha
nqdjtl2omeIAdzXiiKJLzPR/OXmmxSU6j560y/hDQqJo4JHkRYogzc0SMgySKwJT4SznYinBomfk
UiPmzbRfO1lqGkfUrnVrS+1h7ZjIlsjRjkIFd1o5arAtX9n/AFRxOQ8Q35MuEUmHmbzJZ6Xp92s2
oxafqN5AwsZ5asfVW2Uh+CgswRmBNB+vLc0zx0wxxHCwK286eYLeFIR5102/umZw0iQvIDNKz+jG
ixxuCoaN1oDXipJJ7Q4/IsuHzZfpPnjS9V05bJNYtdR1mOGK5nFqpioBKq8/SZ5GWj0/a8PEYIzP
EO61lEcJV/O3mey0rS761GsW+japdet9Turgj4G9UR+pxIblx5DYj8K0lkmeMhEIjhYK/n7XrC2M
svnPTZ0BkImS3kuObR/C4pHHQgclPwsAnVuQOw476FeHzegaZ5w0bWoVj0/U7fULm3mtzNLa1CDn
Ku61Z+qmhox/HHFM8YBTOI4SznNg4iGtZ7mWa4Sa3MKRPxhcsD6i0ryoOmQhIkmxVH5spAACi5Li
6a/lga3K26IrJc8hRmPVePX/AD+WASPERW3epAoG93SXF0t/FAtuWt3RmkueQAVh0Xj13/z74mUu
ICtq5qAOG737kTljF5H5783iPS4dK0XzVZeX9btQJbo3IEgW3+qvyDrRuJAkSROlWUDetDro5DfK
w5ZjtzQNl5+1a3ura3u/Nemv6KD66WtpnQrFbsZZAwENOUnHiPUPP4iv++w8fkV4fN6Do2vafq2q
W0unXSXMKi4ilaM1AZQjcT94YexB6HLdNMkkFhmjQDKczHHdirsVdirsVdirsVdirsVdirsVdiqV
6xoUWpcS0vpsvHYokin025oeLDqrbg5Rm08clXezbjymHJIY/wAs9HjgSBFtxDGiRon1OAgJE3KN
dx0VviHvvlX5KPfL5s/zJ7gq2v5e2FoytavBbsgIRorSBCoJBIHECm4BxOhgeZl81/My7gitW8l2
Gp2EdlcOHhWBbeRJI0kRkUMtaNupo53By3Jp4zINmwwhmMRSCf8ALfSpF4OLZ0+E8Ws4CPgT002I
/ZT4R4DbKvyUe+XzZ/mT3BWTyJbRgiOeOOvdLaJT9j0+q0/Y+H5bYjRQBuz81Opl3BEa15L0/VkE
dyyvFx4PHLFHKp+D0zQMNuSbHxGWZNNGcuKyCxhmMRWyBf8ALjSnlMr/AFdpSamQ2cBYmhWtaV6M
R9OV/ko98vmy/MnuCpD+X9lBJ6kMsUT04F4raGNinP1CvJQDQvuR45KOjiCDZ280S1BIqgitZ8mW
Oqylp3Voy3P0pYo5QGEiy7FhWnqRq1PEDGekjKRlZsojnIFbICX8tdIm/vVtpN2b4rK3beRgzncf
tMoJ8SMj+Sj3y+bL8ye4Iuy8k21pKrwzJGvqLJIkUEcfMoVIqUp/IMlDSRjIGzsiWckVsybMpodi
rsVdirsVYlc/l5pk98LxmjadEeKOSS3ikcRyKEdSxG9UXj8tswzoo98vm5H5iXcFo/LnTBIZB9XE
hUxl/qcHIoV4Fa06cfhp4bY/ko98vmv5mXcEy0nyvFp179aWYMfiJRYkjBZlVSzcep4oBv4Zbh08
cfK2GTKZc09y9qdirsVdirsVdirsVdirsVdirsVaxV//2Q==</xapGImg:image>
    </rdf:li>
   </rdf:Alt>
  </xap:Thumbnails>
 </rdf:Description>

 <rdf:Description
   rdf:about="uuid:75610f62-92d4-11e4-92d4-000d933a9528">
  <xapMM:DocumentID>uuid:ccfd6a0c-6996-11e4-baf7-000d933a9528</xapMM:DocumentID>
 </rdf:Description>

 <rdf:Description
   rdf:about="uuid:75610f62-92d4-11e4-92d4-000d933a9528">
  <dc:format>image/svg+xml</dc:format>
 </rdf:Description>

<cc:Work
   rdf:about=""><dc:format>image/svg+xml</dc:format><dc:type
     rdf:resource="http://purl.org/dc/dcmitype/StillImage" /></cc:Work></rdf:RDF></metadata></x:xmpmeta>
                                                                                                                                                                                                                                                                                                                                                                                                                                                                                                                                                                                                                                                                                                                                                                                                                                                                                                                                                                                                                                                                                                                                                                                                                                                                                                                                                                                                                                                                                                                                                                                                                                                                                                                                                                                                                                                                                                                                                                                                                                                                                                                                <?xpacket end='w'?>
			</metadata>
		
	<g
   id="g194"
   transform="translate(-451.79504,-574.89296)"><path
     ns3:knockout="Off"
     fill="#cccccc"
     d="m 811.331,627.474 c 3.117,0 5.67,1.275 5.67,2.834 v 50.582 c 0,1.559 -2.553,2.834 -5.67,2.834 h -93.527 c -3.118,0 -5.671,-1.275 -5.671,-2.834 v -50.582 c 0,-1.559 2.553,-2.834 5.671,-2.834 z"
     id="path192" /></g><g
   id="g203"
   transform="translate(-451.79504,-574.89296)"
   style="filter:url(#filter2255)"><linearGradient
     id="linearGradient2161"
     gradientUnits="userSpaceOnUse"
     x1="190.73489"
     y1="448.63129"
     x2="361.29611"
     y2="448.63129"
     gradientTransform="rotate(-90,637.47995,327.21535)"><stop
       offset="0"
       style="stop-color:#FF9900"
       id="stop2157" /><stop
       offset="1"
       style="stop-color:#FFFFFF"
       id="stop2159" /><a:midPointStop
       offset="0"
       style="stop-color:#FF9900" /><a:midPointStop
       offset="0.5"
       style="stop-color:#FF9900" /><a:midPointStop
       offset="1"
       style="stop-color:#FFFFFF" /></linearGradient><path
     ns3:knockout="Off"
     fill="url(#XMLID_24_)"
     stroke="#595959"
     stroke-width="1.5"
     d="m 805.663,621.804 c 3.117,0 5.668,1.275 5.668,2.834 v 50.582 c 0,1.559 -2.551,2.834 -5.668,2.834 h -93.53 c -3.118,0 -5.671,-1.275 -5.671,-2.834 v -50.582 c 0,-1.559 2.553,-2.834 5.671,-2.834 z"
     id="path201"
     style="fill:url(#XMLID_24_)" /></g><g
   ns3:knockout="Off"
   id="g235"
   transform="translate(-451.79504,-574.89296)"><path
     ns3:knockout="Off"
     d="m 743.827,639.46 c -0.105,-1.974 -0.231,-4.367 -0.231,-6.111 h -0.042 c -0.505,1.639 -1.073,3.424 -1.789,5.377 l -2.504,6.867 h -1.389 l -2.314,-6.742 c -0.673,-2.016 -1.221,-3.821 -1.621,-5.502 h -0.042 c -0.042,1.765 -0.147,4.117 -0.273,6.259 l -0.379,6.069 h -1.747 l 0.989,-14.154 h 2.335 l 2.42,6.846 c 0.59,1.743 1.053,3.297 1.431,4.768 h 0.042 c 0.379,-1.429 0.885,-2.982 1.516,-4.768 l 2.525,-6.846 h 2.335 l 0.884,14.154 h -1.81 z"
     id="path205" /><path
     ns3:knockout="Off"
     d="m 750.096,633.644 c -0.694,0 -1.157,-0.547 -1.157,-1.197 0,-0.65 0.483,-1.176 1.199,-1.176 0.716,0 1.179,0.525 1.179,1.176 0,0.651 -0.463,1.197 -1.199,1.197 z m -0.884,12.033 v -10.164 h 1.852 v 10.164 z"
     id="path207" /><path
     ns3:knockout="Off"
     d="m 761.606,645.32 c -0.484,0.23 -1.558,0.588 -2.926,0.588 -3.072,0 -5.07,-2.079 -5.07,-5.208 0,-3.129 2.146,-5.418 5.471,-5.418 1.094,0 2.062,0.272 2.566,0.546 l -0.42,1.407 c -0.441,-0.231 -1.137,-0.483 -2.146,-0.483 -2.336,0 -3.598,1.743 -3.598,3.864 0,2.353 1.515,3.802 3.535,3.802 1.051,0 1.746,-0.253 2.271,-0.484 z"
     id="path209" /><path
     ns3:knockout="Off"
     d="m 764.004,638.683 c 0,-1.196 -0.021,-2.225 -0.084,-3.17 h 1.62 l 0.084,1.994 h 0.063 c 0.463,-1.365 1.6,-2.226 2.84,-2.226 0.189,0 0.338,0.021 0.506,0.063 v 1.722 c -0.211,-0.021 -0.4,-0.042 -0.652,-0.042 -1.305,0 -2.23,0.986 -2.483,2.352 -0.042,0.273 -0.063,0.567 -0.063,0.883 v 5.418 h -1.852 z"
     id="path211" /><path
     ns3:knockout="Off"
     d="m 775.096,645.908 c -2.735,0 -4.881,-2.016 -4.881,-5.229 0,-3.402 2.251,-5.397 5.049,-5.397 2.926,0 4.903,2.121 4.903,5.208 0,3.779 -2.63,5.418 -5.05,5.418 z m 0.064,-1.386 c 1.767,0 3.093,-1.659 3.093,-3.97 0,-1.722 -0.862,-3.885 -3.051,-3.885 -2.168,0 -3.114,2.016 -3.114,3.948 0,2.226 1.263,3.906 3.051,3.906 h 0.021 z"
     id="path213" /><path
     ns3:knockout="Off"
     d="m 787.006,639.335 v 1.344 h -5.197 v -1.344 z"
     id="path215" /><path
     ns3:knockout="Off"
     d="m 720.618,666.908 c -2.735,0 -4.881,-2.016 -4.881,-5.229 0,-3.402 2.251,-5.397 5.05,-5.397 2.925,0 4.903,2.121 4.903,5.208 0,3.779 -2.63,5.418 -5.05,5.418 z m 0.063,-1.386 c 1.767,0 3.093,-1.659 3.093,-3.97 0,-1.722 -0.862,-3.885 -3.051,-3.885 -2.167,0 -3.114,2.016 -3.114,3.948 0,2.226 1.263,3.906 3.051,3.906 h 0.021 z"
     id="path217" /><path
     ns3:knockout="Off"
     d="m 728.235,659.831 c 0,-1.302 -0.021,-2.352 -0.084,-3.317 h 1.663 l 0.105,1.742 h 0.042 c 0.736,-1.26 1.957,-1.974 3.598,-1.974 2.483,0 4.334,2.079 4.334,5.166 0,3.653 -2.251,5.46 -4.629,5.46 -1.368,0 -2.525,-0.588 -3.135,-1.596 h -0.042 v 5.523 h -1.852 z m 1.851,2.709 c 0,0.253 0.021,0.525 0.084,0.757 0.316,1.28 1.452,2.162 2.757,2.162 1.957,0 3.093,-1.596 3.093,-3.927 0,-2.037 -1.052,-3.78 -3.009,-3.78 -1.263,0 -2.462,0.883 -2.819,2.269 -0.042,0.252 -0.105,0.524 -0.105,0.756 v 1.763 z"
     id="path219" /><path
     ns3:knockout="Off"
     d="m 741.491,661.91 c 0.042,2.499 1.62,3.528 3.472,3.528 1.325,0 2.146,-0.231 2.819,-0.505 l 0.337,1.303 c -0.652,0.294 -1.788,0.65 -3.409,0.65 -3.113,0 -5.008,-2.078 -5.008,-5.123 0,-3.088 1.831,-5.502 4.798,-5.502 3.325,0 4.188,2.918 4.188,4.787 0,0.379 -0.021,0.672 -0.063,0.883 z m 5.408,-1.323 c 0.021,-1.156 -0.484,-3.004 -2.547,-3.004 -1.894,0 -2.693,1.723 -2.84,3.004 z"
     id="path221" /><path
     ns3:knockout="Off"
     d="m 751.211,659.683 c 0,-1.196 -0.021,-2.225 -0.084,-3.17 h 1.621 l 0.084,1.994 h 0.062 c 0.463,-1.365 1.6,-2.226 2.841,-2.226 0.189,0 0.337,0.021 0.505,0.063 v 1.722 c -0.211,-0.021 -0.399,-0.042 -0.652,-0.042 -1.305,0 -2.23,0.986 -2.482,2.352 -0.043,0.273 -0.063,0.567 -0.063,0.883 v 5.418 h -1.852 z"
     id="path223" /><path
     ns3:knockout="Off"
     d="m 765.334,664.241 c 0,0.882 0.041,1.743 0.146,2.437 h -1.662 l -0.168,-1.281 h -0.063 c -0.547,0.798 -1.662,1.512 -3.114,1.512 -2.062,0 -3.114,-1.449 -3.114,-2.919 0,-2.457 2.188,-3.801 6.124,-3.78 V 660 c 0,-0.84 -0.232,-2.372 -2.315,-2.352 -0.968,0 -1.956,0.272 -2.673,0.756 l -0.42,-1.239 c 0.842,-0.525 2.083,-0.882 3.366,-0.882 3.136,0 3.894,2.121 3.894,4.158 v 3.8 z m -1.81,-2.751 c -2.02,-0.042 -4.312,0.314 -4.312,2.289 0,1.218 0.799,1.764 1.725,1.764 1.347,0 2.209,-0.84 2.504,-1.701 0.063,-0.188 0.084,-0.398 0.084,-0.588 v -1.764 z"
     id="path225" /><path
     ns3:knockout="Off"
     d="m 770.66,654.077 v 2.437 h 2.651 v 1.406 h -2.651 v 5.481 c 0,1.26 0.357,1.974 1.389,1.974 0.505,0 0.8,-0.042 1.073,-0.126 l 0.084,1.407 c -0.357,0.126 -0.926,0.252 -1.641,0.252 -0.863,0 -1.558,-0.294 -2,-0.777 -0.504,-0.566 -0.715,-1.47 -0.715,-2.666 v -5.545 h -1.578 v -1.406 h 1.578 v -1.869 z"
     id="path227" /><path
     ns3:knockout="Off"
     d="m 776.489,654.644 c -0.695,0 -1.158,-0.547 -1.158,-1.197 0,-0.65 0.484,-1.176 1.199,-1.176 0.716,0 1.179,0.525 1.179,1.176 0,0.651 -0.463,1.197 -1.199,1.197 z m -0.885,12.033 v -10.164 h 1.852 v 10.164 z"
     id="path229" /><path
     ns3:knockout="Off"
     d="m 784.883,666.908 c -2.735,0 -4.881,-2.016 -4.881,-5.229 0,-3.402 2.251,-5.397 5.049,-5.397 2.926,0 4.903,2.121 4.903,5.208 0,3.779 -2.63,5.418 -5.05,5.418 z m 0.064,-1.386 c 1.767,0 3.093,-1.659 3.093,-3.97 0,-1.722 -0.862,-3.885 -3.051,-3.885 -2.168,0 -3.114,2.016 -3.114,3.948 0,2.226 1.263,3.906 3.051,3.906 h 0.021 z"
     id="path231" /><path
     ns3:knockout="Off"
     d="m 792.5,659.263 c 0,-1.07 -0.021,-1.91 -0.084,-2.75 h 1.642 l 0.104,1.658 h 0.043 c 0.505,-0.945 1.684,-1.89 3.366,-1.89 1.41,0 3.599,0.84 3.599,4.326 v 6.069 h -1.852 v -5.859 c 0,-1.639 -0.61,-3.023 -2.357,-3.023 -1.199,0 -2.146,0.86 -2.482,1.889 -0.084,0.231 -0.127,0.568 -0.127,0.861 v 6.133 H 792.5 Z"
     id="path233" /></g></svg>
